<svg width="22" height="25" viewBox="0 0 22 25" fill="none" xmlns="http://www.w3.org/2000/svg">
<path d="M18.6239 4.34307C17.2217 3.6942 15.7181 3.21614 14.1459 2.94233C14.1173 2.93704 14.0887 2.95025 14.0739 2.97666C13.8805 3.32355 13.6664 3.77608 13.5163 4.13177C11.8254 3.87645 10.1431 3.87645 8.48679 4.13177C8.33677 3.76816 8.11477 3.32355 7.92053 2.97666C7.90579 2.95113 7.87717 2.93792 7.84856 2.94233C6.27726 3.21525 4.7736 3.69332 3.37053 4.34307C3.35839 4.34835 3.34798 4.35716 3.34104 4.3686C0.488943 8.66592 -0.292371 12.8576 0.0909151 16.9973C0.0926494 17.0176 0.103923 17.0369 0.119531 17.0493C2.00128 18.443 3.82405 19.289 5.61301 19.8499C5.64163 19.8587 5.67198 19.8481 5.69019 19.8243C6.11336 19.2415 6.49058 18.627 6.81403 17.9807C6.83311 17.9429 6.8149 17.898 6.77588 17.883C6.17753 17.6541 5.60781 17.375 5.05976 17.0581C5.0164 17.0325 5.01293 16.97 5.05282 16.9401C5.16816 16.8529 5.28349 16.7622 5.39362 16.6707C5.41356 16.6539 5.44131 16.6504 5.46473 16.661C9.06519 18.3188 12.9631 18.3188 16.5211 16.661C16.5445 16.6495 16.5722 16.6531 16.593 16.6698C16.7032 16.7614 16.8185 16.8529 16.9347 16.9401C16.9746 16.97 16.972 17.0325 16.9286 17.0581C16.3806 17.3812 15.8108 17.6541 15.2116 17.8821C15.1726 17.8971 15.1553 17.9429 15.1743 17.9807C15.5047 18.6261 15.882 19.2406 16.2973 19.8235C16.3147 19.8481 16.3459 19.8587 16.3745 19.8499C18.1721 19.289 19.9949 18.443 21.8767 17.0493C21.8931 17.0369 21.9035 17.0184 21.9053 16.9982C22.364 12.2122 21.137 8.05491 18.6525 4.36948C18.6465 4.35716 18.6361 4.34835 18.6239 4.34307ZM7.35167 14.4767C6.26772 14.4767 5.37454 13.473 5.37454 12.2404C5.37454 11.0078 6.25037 10.0042 7.35167 10.0042C8.46164 10.0042 9.34615 11.0166 9.3288 12.2404C9.3288 13.473 8.45297 14.4767 7.35167 14.4767ZM14.6619 14.4767C13.5779 14.4767 12.6847 13.473 12.6847 12.2404C12.6847 11.0078 13.5606 10.0042 14.6619 10.0042C15.7718 10.0042 16.6563 11.0166 16.639 12.2404C16.639 13.473 15.7718 14.4767 14.6619 14.4767Z" fill="#6366F1"/>
</svg>
